<svg width="220" height="220" viewBox="0 0 220 220" fill="none" xmlns="http://www.w3.org/2000/svg">
<g filter="url(#filter0_d_46_2)">
<rect x="10" y="10" width="200" height="200" rx="25" fill="#1D1D1D"/>
</g>
<path d="M77.5906 40.288C76.6946 40.288 76.0466 40.096 75.6466 39.712C75.2626 39.312 75.0706 38.84 75.0706 38.296V37.456C75.0706 36.912 75.2626 36.448 75.6466 36.064C76.0466 35.664 76.6946 35.464 77.5906 35.464C78.4866 35.464 79.1266 35.664 79.5106 36.064C79.9106 36.448 80.1106 36.912 80.1106 37.456V38.296C80.1106 38.84 79.9106 39.312 79.5106 39.712C79.1266 40.096 78.4866 40.288 77.5906 40.288ZM91.9813 40.288C91.0213 40.288 90.1573 40.144 89.3893 39.856C88.6213 39.552 87.9653 39.12 87.4213 38.56C86.8933 38 86.4853 37.32 86.1973 36.52C85.9093 35.72 85.7653 34.816 85.7653 33.808C85.7653 32.8 85.9093 31.896 86.1973 31.096C86.4853 30.296 86.8933 29.616 87.4213 29.056C87.9653 28.496 88.6213 28.072 89.3893 27.784C90.1573 27.48 91.0213 27.328 91.9813 27.328C92.9413 27.328 93.8053 27.48 94.5733 27.784C95.3413 28.072 95.9893 28.496 96.5173 29.056C97.0613 29.616 97.4773 30.296 97.7653 31.096C98.0533 31.896 98.1973 32.8 98.1973 33.808C98.1973 34.816 98.0533 35.72 97.7653 36.52C97.4773 37.32 97.0613 38 96.5173 38.56C95.9893 39.12 95.3413 39.552 94.5733 39.856C93.8053 40.144 92.9413 40.288 91.9813 40.288ZM91.9813 37.648C92.7813 37.648 93.4053 37.4 93.8533 36.904C94.3013 36.408 94.5253 35.704 94.5253 34.792V32.824C94.5253 31.912 94.3013 31.208 93.8533 30.712C93.4053 30.216 92.7813 29.968 91.9813 29.968C91.1813 29.968 90.5573 30.216 90.1093 30.712C89.6613 31.208 89.4373 31.912 89.4373 32.824V34.792C89.4373 35.704 89.6613 36.408 90.1093 36.904C90.5573 37.4 91.1813 37.648 91.9813 37.648ZM106.372 40.288C105.364 40.288 104.468 40.168 103.684 39.928C102.9 39.672 102.236 39.328 101.692 38.896C101.148 38.464 100.732 37.952 100.444 37.36C100.172 36.752 100.036 36.096 100.036 35.392C100.036 34.304 100.348 33.432 100.972 32.776C101.596 32.104 102.396 31.632 103.372 31.36V31.168C102.54 30.864 101.86 30.4 101.332 29.776C100.804 29.152 100.54 28.352 100.54 27.376C100.54 26.736 100.668 26.144 100.924 25.6C101.18 25.056 101.556 24.592 102.052 24.208C102.548 23.808 103.156 23.504 103.876 23.296C104.596 23.072 105.428 22.96 106.372 22.96C107.3 22.96 108.124 23.072 108.844 23.296C109.58 23.504 110.196 23.808 110.692 24.208C111.188 24.592 111.564 25.056 111.82 25.6C112.076 26.144 112.204 26.736 112.204 27.376C112.204 28.352 111.94 29.152 111.412 29.776C110.884 30.4 110.204 30.864 109.372 31.168V31.36C110.348 31.632 111.148 32.104 111.772 32.776C112.396 33.432 112.708 34.304 112.708 35.392C112.708 36.096 112.564 36.752 112.276 37.36C112.004 37.952 111.596 38.464 111.052 38.896C110.508 39.328 109.844 39.672 109.06 39.928C108.276 40.168 107.38 40.288 106.372 40.288ZM106.372 37.528C107.204 37.528 107.836 37.336 108.268 36.952C108.716 36.568 108.94 36.048 108.94 35.392V34.912C108.94 34.24 108.724 33.72 108.292 33.352C107.86 32.968 107.22 32.776 106.372 32.776C105.524 32.776 104.884 32.968 104.452 33.352C104.02 33.72 103.804 34.24 103.804 34.912V35.392C103.804 36.048 104.02 36.568 104.452 36.952C104.9 37.336 105.54 37.528 106.372 37.528ZM106.372 30.136C107.172 30.136 107.78 29.952 108.196 29.584C108.612 29.216 108.82 28.72 108.82 28.096V27.736C108.82 27.112 108.604 26.624 108.172 26.272C107.756 25.904 107.156 25.72 106.372 25.72C105.588 25.72 104.98 25.904 104.548 26.272C104.132 26.624 103.924 27.112 103.924 27.736V28.096C103.924 28.72 104.132 29.216 104.548 29.584C104.964 29.952 105.572 30.136 106.372 30.136ZM120.763 40.288C119.755 40.288 118.859 40.168 118.075 39.928C117.291 39.672 116.627 39.328 116.083 38.896C115.539 38.464 115.123 37.952 114.835 37.36C114.563 36.752 114.427 36.096 114.427 35.392C114.427 34.304 114.739 33.432 115.363 32.776C115.987 32.104 116.787 31.632 117.763 31.36V31.168C116.931 30.864 116.251 30.4 115.723 29.776C115.195 29.152 114.931 28.352 114.931 27.376C114.931 26.736 115.059 26.144 115.315 25.6C115.571 25.056 115.947 24.592 116.443 24.208C116.939 23.808 117.547 23.504 118.267 23.296C118.987 23.072 119.819 22.96 120.763 22.96C121.691 22.96 122.515 23.072 123.235 23.296C123.971 23.504 124.587 23.808 125.083 24.208C125.579 24.592 125.955 25.056 126.211 25.6C126.467 26.144 126.595 26.736 126.595 27.376C126.595 28.352 126.331 29.152 125.803 29.776C125.275 30.4 124.595 30.864 123.763 31.168V31.36C124.739 31.632 125.539 32.104 126.163 32.776C126.787 33.432 127.099 34.304 127.099 35.392C127.099 36.096 126.955 36.752 126.667 37.36C126.395 37.952 125.987 38.464 125.443 38.896C124.899 39.328 124.235 39.672 123.451 39.928C122.667 40.168 121.771 40.288 120.763 40.288ZM120.763 37.528C121.595 37.528 122.227 37.336 122.659 36.952C123.107 36.568 123.331 36.048 123.331 35.392V34.912C123.331 34.24 123.115 33.72 122.683 33.352C122.251 32.968 121.611 32.776 120.763 32.776C119.915 32.776 119.275 32.968 118.843 33.352C118.411 33.72 118.195 34.24 118.195 34.912V35.392C118.195 36.048 118.411 36.568 118.843 36.952C119.291 37.336 119.931 37.528 120.763 37.528ZM120.763 30.136C121.563 30.136 122.171 29.952 122.587 29.584C123.003 29.216 123.211 28.72 123.211 28.096V27.736C123.211 27.112 122.995 26.624 122.563 26.272C122.147 25.904 121.547 25.72 120.763 25.72C119.979 25.72 119.371 25.904 118.939 26.272C118.523 26.624 118.315 27.112 118.315 27.736V28.096C118.315 28.72 118.523 29.216 118.939 29.584C119.355 29.952 119.963 30.136 120.763 30.136ZM129.369 22.24H132.921V29.872H133.089C133.393 29.136 133.833 28.528 134.409 28.048C134.985 27.568 135.769 27.328 136.761 27.328C137.449 27.328 138.073 27.456 138.633 27.712C139.209 27.968 139.697 28.36 140.097 28.888C140.513 29.416 140.833 30.088 141.057 30.904C141.297 31.72 141.417 32.688 141.417 33.808C141.417 34.928 141.297 35.896 141.057 36.712C140.833 37.528 140.513 38.2 140.097 38.728C139.697 39.256 139.209 39.648 138.633 39.904C138.073 40.16 137.449 40.288 136.761 40.288C135.769 40.288 134.985 40.056 134.409 39.592C133.833 39.112 133.393 38.496 133.089 37.744H132.921V40H129.369V22.24ZM135.225 37.528C136.025 37.528 136.641 37.288 137.073 36.808C137.505 36.312 137.721 35.632 137.721 34.768V32.848C137.721 31.984 137.505 31.312 137.073 30.832C136.641 30.336 136.025 30.088 135.225 30.088C134.601 30.088 134.057 30.24 133.593 30.544C133.145 30.848 132.921 31.328 132.921 31.984V35.632C132.921 36.288 133.145 36.768 133.593 37.072C134.057 37.376 134.601 37.528 135.225 37.528ZM149.544 40.288C148.648 40.288 148 40.096 147.6 39.712C147.216 39.312 147.024 38.84 147.024 38.296V37.456C147.024 36.912 147.216 36.448 147.6 36.064C148 35.664 148.648 35.464 149.544 35.464C150.44 35.464 151.08 35.664 151.464 36.064C151.864 36.448 152.064 36.912 152.064 37.456V38.296C152.064 38.84 151.864 39.312 151.464 39.712C151.08 40.096 150.44 40.288 149.544 40.288ZM65.432 68.744H65.264C64.944 69.496 64.496 70.112 63.92 70.592C63.36 71.056 62.584 71.288 61.592 71.288C60.904 71.288 60.272 71.16 59.696 70.904C59.136 70.648 58.648 70.256 58.232 69.728C57.832 69.2 57.512 68.528 57.272 67.712C57.048 66.896 56.936 65.928 56.936 64.808C56.936 63.688 57.048 62.72 57.272 61.904C57.512 61.088 57.832 60.416 58.232 59.888C58.648 59.36 59.136 58.968 59.696 58.712C60.272 58.456 60.904 58.328 61.592 58.328C62.088 58.328 62.528 58.392 62.912 58.52C63.296 58.648 63.632 58.824 63.92 59.048C64.224 59.272 64.48 59.544 64.688 59.864C64.912 60.168 65.104 60.504 65.264 60.872H65.432V53.24H68.984V71H65.432V68.744ZM63.128 68.528C63.752 68.528 64.288 68.376 64.736 68.072C65.2 67.768 65.432 67.288 65.432 66.632V62.984C65.432 62.328 65.2 61.848 64.736 61.544C64.288 61.24 63.752 61.088 63.128 61.088C62.328 61.088 61.712 61.336 61.28 61.832C60.848 62.312 60.632 62.984 60.632 63.848V65.768C60.632 66.632 60.848 67.312 61.28 67.808C61.712 68.288 62.328 68.528 63.128 68.528ZM77.5906 71.288C76.5826 71.288 75.6866 71.168 74.9026 70.928C74.1186 70.672 73.4546 70.328 72.9106 69.896C72.3666 69.464 71.9506 68.952 71.6626 68.36C71.3906 67.752 71.2546 67.096 71.2546 66.392C71.2546 65.304 71.5666 64.432 72.1906 63.776C72.8146 63.104 73.6146 62.632 74.5906 62.36V62.168C73.7586 61.864 73.0786 61.4 72.5506 60.776C72.0226 60.152 71.7586 59.352 71.7586 58.376C71.7586 57.736 71.8866 57.144 72.1426 56.6C72.3986 56.056 72.7746 55.592 73.2706 55.208C73.7666 54.808 74.3746 54.504 75.0946 54.296C75.8146 54.072 76.6466 53.96 77.5906 53.96C78.5186 53.96 79.3426 54.072 80.0626 54.296C80.7986 54.504 81.4146 54.808 81.9106 55.208C82.4066 55.592 82.7826 56.056 83.0386 56.6C83.2946 57.144 83.4226 57.736 83.4226 58.376C83.4226 59.352 83.1586 60.152 82.6306 60.776C82.1026 61.4 81.4226 61.864 80.5906 62.168V62.36C81.5666 62.632 82.3666 63.104 82.9906 63.776C83.6146 64.432 83.9266 65.304 83.9266 66.392C83.9266 67.096 83.7826 67.752 83.4946 68.36C83.2226 68.952 82.8146 69.464 82.2706 69.896C81.7266 70.328 81.0626 70.672 80.2786 70.928C79.4946 71.168 78.5986 71.288 77.5906 71.288ZM77.5906 68.528C78.4226 68.528 79.0546 68.336 79.4866 67.952C79.9346 67.568 80.1586 67.048 80.1586 66.392V65.912C80.1586 65.24 79.9426 64.72 79.5106 64.352C79.0786 63.968 78.4386 63.776 77.5906 63.776C76.7426 63.776 76.1026 63.968 75.6706 64.352C75.2386 64.72 75.0226 65.24 75.0226 65.912V66.392C75.0226 67.048 75.2386 67.568 75.6706 67.952C76.1186 68.336 76.7586 68.528 77.5906 68.528ZM77.5906 61.136C78.3906 61.136 78.9986 60.952 79.4146 60.584C79.8306 60.216 80.0386 59.72 80.0386 59.096V58.736C80.0386 58.112 79.8226 57.624 79.3906 57.272C78.9746 56.904 78.3746 56.72 77.5906 56.72C76.8066 56.72 76.1986 56.904 75.7666 57.272C75.3506 57.624 75.1426 58.112 75.1426 58.736V59.096C75.1426 59.72 75.3506 60.216 75.7666 60.584C76.1826 60.952 76.7906 61.136 77.5906 61.136ZM86.6053 71V54.248H93.0853C93.9013 54.248 94.6293 54.376 95.2693 54.632C95.9093 54.872 96.4453 55.224 96.8773 55.688C97.3253 56.152 97.6613 56.712 97.8853 57.368C98.1093 58.024 98.2213 58.76 98.2213 59.576C98.2213 60.392 98.1093 61.128 97.8853 61.784C97.6613 62.44 97.3253 63 96.8773 63.464C96.4453 63.928 95.9093 64.288 95.2693 64.544C94.6293 64.784 93.9013 64.904 93.0853 64.904H90.2293V71H86.6053ZM90.2293 62H92.1733C93.0213 62 93.6053 61.84 93.9253 61.52C94.2613 61.2 94.4293 60.672 94.4293 59.936V59.216C94.4293 58.48 94.2613 57.952 93.9253 57.632C93.6053 57.312 93.0213 57.152 92.1733 57.152H90.2293V62ZM133.353 71V65.072L128.049 54.248H132.057L133.833 58.136L135.129 61.424H135.321L136.617 58.136L138.393 54.248H142.257L136.953 65.072V71H133.353ZM149.544 71.288C148.536 71.288 147.64 71.168 146.856 70.928C146.072 70.672 145.408 70.328 144.864 69.896C144.32 69.464 143.904 68.952 143.616 68.36C143.344 67.752 143.208 67.096 143.208 66.392C143.208 65.304 143.52 64.432 144.144 63.776C144.768 63.104 145.568 62.632 146.544 62.36V62.168C145.712 61.864 145.032 61.4 144.504 60.776C143.976 60.152 143.712 59.352 143.712 58.376C143.712 57.736 143.84 57.144 144.096 56.6C144.352 56.056 144.728 55.592 145.224 55.208C145.72 54.808 146.328 54.504 147.048 54.296C147.768 54.072 148.6 53.96 149.544 53.96C150.472 53.96 151.296 54.072 152.016 54.296C152.752 54.504 153.368 54.808 153.864 55.208C154.36 55.592 154.736 56.056 154.992 56.6C155.248 57.144 155.376 57.736 155.376 58.376C155.376 59.352 155.112 60.152 154.584 60.776C154.056 61.4 153.376 61.864 152.544 62.168V62.36C153.52 62.632 154.32 63.104 154.944 63.776C155.568 64.432 155.88 65.304 155.88 66.392C155.88 67.096 155.736 67.752 155.448 68.36C155.176 68.952 154.768 69.464 154.224 69.896C153.68 70.328 153.016 70.672 152.232 70.928C151.448 71.168 150.552 71.288 149.544 71.288ZM149.544 68.528C150.376 68.528 151.008 68.336 151.44 67.952C151.888 67.568 152.112 67.048 152.112 66.392V65.912C152.112 65.24 151.896 64.72 151.464 64.352C151.032 63.968 150.392 63.776 149.544 63.776C148.696 63.776 148.056 63.968 147.624 64.352C147.192 64.72 146.976 65.24 146.976 65.912V66.392C146.976 67.048 147.192 67.568 147.624 67.952C148.072 68.336 148.712 68.528 149.544 68.528ZM149.544 61.136C150.344 61.136 150.952 60.952 151.368 60.584C151.784 60.216 151.992 59.72 151.992 59.096V58.736C151.992 58.112 151.776 57.624 151.344 57.272C150.928 56.904 150.328 56.72 149.544 56.72C148.76 56.72 148.152 56.904 147.72 57.272C147.304 57.624 147.096 58.112 147.096 58.736V59.096C147.096 59.72 147.304 60.216 147.72 60.584C148.136 60.952 148.744 61.136 149.544 61.136ZM63.2 102.288C62.192 102.288 61.296 102.168 60.512 101.928C59.728 101.672 59.064 101.328 58.52 100.896C57.976 100.464 57.56 99.952 57.272 99.36C57 98.752 56.864 98.096 56.864 97.392C56.864 96.304 57.176 95.432 57.8 94.776C58.424 94.104 59.224 93.632 60.2 93.36V93.168C59.368 92.864 58.688 92.4 58.16 91.776C57.632 91.152 57.368 90.352 57.368 89.376C57.368 88.736 57.496 88.144 57.752 87.6C58.008 87.056 58.384 86.592 58.88 86.208C59.376 85.808 59.984 85.504 60.704 85.296C61.424 85.072 62.256 84.96 63.2 84.96C64.128 84.96 64.952 85.072 65.672 85.296C66.408 85.504 67.024 85.808 67.52 86.208C68.016 86.592 68.392 87.056 68.648 87.6C68.904 88.144 69.032 88.736 69.032 89.376C69.032 90.352 68.768 91.152 68.24 91.776C67.712 92.4 67.032 92.864 66.2 93.168V93.36C67.176 93.632 67.976 94.104 68.6 94.776C69.224 95.432 69.536 96.304 69.536 97.392C69.536 98.096 69.392 98.752 69.104 99.36C68.832 99.952 68.424 100.464 67.88 100.896C67.336 101.328 66.672 101.672 65.888 101.928C65.104 102.168 64.208 102.288 63.2 102.288ZM63.2 99.528C64.032 99.528 64.664 99.336 65.096 98.952C65.544 98.568 65.768 98.048 65.768 97.392V96.912C65.768 96.24 65.552 95.72 65.12 95.352C64.688 94.968 64.048 94.776 63.2 94.776C62.352 94.776 61.712 94.968 61.28 95.352C60.848 95.72 60.632 96.24 60.632 96.912V97.392C60.632 98.048 60.848 98.568 61.28 98.952C61.728 99.336 62.368 99.528 63.2 99.528ZM63.2 92.136C64 92.136 64.608 91.952 65.024 91.584C65.44 91.216 65.648 90.72 65.648 90.096V89.736C65.648 89.112 65.432 88.624 65 88.272C64.584 87.904 63.984 87.72 63.2 87.72C62.416 87.72 61.808 87.904 61.376 88.272C60.96 88.624 60.752 89.112 60.752 89.736V90.096C60.752 90.72 60.96 91.216 61.376 91.584C61.792 91.952 62.4 92.136 63.2 92.136ZM72.2146 102V85.248H78.6946C79.5106 85.248 80.2386 85.376 80.8786 85.632C81.5186 85.872 82.0546 86.224 82.4866 86.688C82.9346 87.152 83.2706 87.712 83.4946 88.368C83.7186 89.024 83.8306 89.76 83.8306 90.576C83.8306 91.392 83.7186 92.128 83.4946 92.784C83.2706 93.44 82.9346 94 82.4866 94.464C82.0546 94.928 81.5186 95.288 80.8786 95.544C80.2386 95.784 79.5106 95.904 78.6946 95.904H75.8386V102H72.2146ZM75.8386 93H77.7826C78.6306 93 79.2146 92.84 79.5346 92.52C79.8706 92.2 80.0386 91.672 80.0386 90.936V90.216C80.0386 89.48 79.8706 88.952 79.5346 88.632C79.2146 88.312 78.6306 88.152 77.7826 88.152H75.8386V93ZM63.2 133.288C62.192 133.288 61.296 133.168 60.512 132.928C59.728 132.672 59.064 132.328 58.52 131.896C57.976 131.464 57.56 130.952 57.272 130.36C57 129.752 56.864 129.096 56.864 128.392C56.864 127.304 57.176 126.432 57.8 125.776C58.424 125.104 59.224 124.632 60.2 124.36V124.168C59.368 123.864 58.688 123.4 58.16 122.776C57.632 122.152 57.368 121.352 57.368 120.376C57.368 119.736 57.496 119.144 57.752 118.6C58.008 118.056 58.384 117.592 58.88 117.208C59.376 116.808 59.984 116.504 60.704 116.296C61.424 116.072 62.256 115.96 63.2 115.96C64.128 115.96 64.952 116.072 65.672 116.296C66.408 116.504 67.024 116.808 67.52 117.208C68.016 117.592 68.392 118.056 68.648 118.6C68.904 119.144 69.032 119.736 69.032 120.376C69.032 121.352 68.768 122.152 68.24 122.776C67.712 123.4 67.032 123.864 66.2 124.168V124.36C67.176 124.632 67.976 125.104 68.6 125.776C69.224 126.432 69.536 127.304 69.536 128.392C69.536 129.096 69.392 129.752 69.104 130.36C68.832 130.952 68.424 131.464 67.88 131.896C67.336 132.328 66.672 132.672 65.888 132.928C65.104 133.168 64.208 133.288 63.2 133.288ZM63.2 130.528C64.032 130.528 64.664 130.336 65.096 129.952C65.544 129.568 65.768 129.048 65.768 128.392V127.912C65.768 127.24 65.552 126.72 65.12 126.352C64.688 125.968 64.048 125.776 63.2 125.776C62.352 125.776 61.712 125.968 61.28 126.352C60.848 126.72 60.632 127.24 60.632 127.912V128.392C60.632 129.048 60.848 129.568 61.28 129.952C61.728 130.336 62.368 130.528 63.2 130.528ZM63.2 123.136C64 123.136 64.608 122.952 65.024 122.584C65.44 122.216 65.648 121.72 65.648 121.096V120.736C65.648 120.112 65.432 119.624 65 119.272C64.584 118.904 63.984 118.72 63.2 118.72C62.416 118.72 61.808 118.904 61.376 119.272C60.96 119.624 60.752 120.112 60.752 120.736V121.096C60.752 121.72 60.96 122.216 61.376 122.584C61.792 122.952 62.4 123.136 63.2 123.136ZM71.8066 115.24H75.3586V122.872H75.5266C75.8306 122.136 76.2706 121.528 76.8466 121.048C77.4226 120.568 78.2066 120.328 79.1986 120.328C79.8866 120.328 80.5106 120.456 81.0706 120.712C81.6466 120.968 82.1346 121.36 82.5346 121.888C82.9506 122.416 83.2706 123.088 83.4946 123.904C83.7346 124.72 83.8546 125.688 83.8546 126.808C83.8546 127.928 83.7346 128.896 83.4946 129.712C83.2706 130.528 82.9506 131.2 82.5346 131.728C82.1346 132.256 81.6466 132.648 81.0706 132.904C80.5106 133.16 79.8866 133.288 79.1986 133.288C78.2066 133.288 77.4226 133.056 76.8466 132.592C76.2706 132.112 75.8306 131.496 75.5266 130.744H75.3586V133H71.8066V115.24ZM77.6626 130.528C78.4626 130.528 79.0786 130.288 79.5106 129.808C79.9426 129.312 80.1586 128.632 80.1586 127.768V125.848C80.1586 124.984 79.9426 124.312 79.5106 123.832C79.0786 123.336 78.4626 123.088 77.6626 123.088C77.0386 123.088 76.4946 123.24 76.0306 123.544C75.5826 123.848 75.3586 124.328 75.3586 124.984V128.632C75.3586 129.288 75.5826 129.768 76.0306 130.072C76.4946 130.376 77.0386 130.528 77.6626 130.528ZM61.4 164V158.072L56.096 147.248H60.104L61.88 151.136L63.176 154.424H63.368L64.664 151.136L66.44 147.248H70.304L65 158.072V164H61.4ZM77.5906 164.288C76.5826 164.288 75.6866 164.168 74.9026 163.928C74.1186 163.672 73.4546 163.328 72.9106 162.896C72.3666 162.464 71.9506 161.952 71.6626 161.36C71.3906 160.752 71.2546 160.096 71.2546 159.392C71.2546 158.304 71.5666 157.432 72.1906 156.776C72.8146 156.104 73.6146 155.632 74.5906 155.36V155.168C73.7586 154.864 73.0786 154.4 72.5506 153.776C72.0226 153.152 71.7586 152.352 71.7586 151.376C71.7586 150.736 71.8866 150.144 72.1426 149.6C72.3986 149.056 72.7746 148.592 73.2706 148.208C73.7666 147.808 74.3746 147.504 75.0946 147.296C75.8146 147.072 76.6466 146.96 77.5906 146.96C78.5186 146.96 79.3426 147.072 80.0626 147.296C80.7986 147.504 81.4146 147.808 81.9106 148.208C82.4066 148.592 82.7826 149.056 83.0386 149.6C83.2946 150.144 83.4226 150.736 83.4226 151.376C83.4226 152.352 83.1586 153.152 82.6306 153.776C82.1026 154.4 81.4226 154.864 80.5906 155.168V155.36C81.5666 155.632 82.3666 156.104 82.9906 156.776C83.6146 157.432 83.9266 158.304 83.9266 159.392C83.9266 160.096 83.7826 160.752 83.4946 161.36C83.2226 161.952 82.8146 162.464 82.2706 162.896C81.7266 163.328 81.0626 163.672 80.2786 163.928C79.4946 164.168 78.5986 164.288 77.5906 164.288ZM77.5906 161.528C78.4226 161.528 79.0546 161.336 79.4866 160.952C79.9346 160.568 80.1586 160.048 80.1586 159.392V158.912C80.1586 158.24 79.9426 157.72 79.5106 157.352C79.0786 156.968 78.4386 156.776 77.5906 156.776C76.7426 156.776 76.1026 156.968 75.6706 157.352C75.2386 157.72 75.0226 158.24 75.0226 158.912V159.392C75.0226 160.048 75.2386 160.568 75.6706 160.952C76.1186 161.336 76.7586 161.528 77.5906 161.528ZM77.5906 154.136C78.3906 154.136 78.9986 153.952 79.4146 153.584C79.8306 153.216 80.0386 152.72 80.0386 152.096V151.736C80.0386 151.112 79.8226 150.624 79.3906 150.272C78.9746 149.904 78.3746 149.72 77.5906 149.72C76.8066 149.72 76.1986 149.904 75.7666 150.272C75.3506 150.624 75.1426 151.112 75.1426 151.736V152.096C75.1426 152.72 75.3506 153.216 75.7666 153.584C76.1826 153.952 76.7906 154.136 77.5906 154.136ZM86.1973 146.24H89.7493V153.872H89.9173C90.2213 153.136 90.6613 152.528 91.2373 152.048C91.8133 151.568 92.5973 151.328 93.5893 151.328C94.2773 151.328 94.9013 151.456 95.4613 151.712C96.0373 151.968 96.5253 152.36 96.9253 152.888C97.3413 153.416 97.6613 154.088 97.8853 154.904C98.1253 155.72 98.2453 156.688 98.2453 157.808C98.2453 158.928 98.1253 159.896 97.8853 160.712C97.6613 161.528 97.3413 162.2 96.9253 162.728C96.5253 163.256 96.0373 163.648 95.4613 163.904C94.9013 164.16 94.2773 164.288 93.5893 164.288C92.5973 164.288 91.8133 164.056 91.2373 163.592C90.6613 163.112 90.2213 162.496 89.9173 161.744H89.7493V164H86.1973V146.24ZM92.0533 161.528C92.8533 161.528 93.4693 161.288 93.9013 160.808C94.3333 160.312 94.5493 159.632 94.5493 158.768V156.848C94.5493 155.984 94.3333 155.312 93.9013 154.832C93.4693 154.336 92.8533 154.088 92.0533 154.088C91.4293 154.088 90.8853 154.24 90.4213 154.544C89.9733 154.848 89.7493 155.328 89.7493 155.984V159.632C89.7493 160.288 89.9733 160.768 90.4213 161.072C90.8853 161.376 91.4293 161.528 92.0533 161.528ZM137.385 161.744H137.217C136.897 162.496 136.449 163.112 135.873 163.592C135.313 164.056 134.537 164.288 133.545 164.288C132.857 164.288 132.225 164.16 131.649 163.904C131.089 163.648 130.601 163.256 130.185 162.728C129.785 162.2 129.465 161.528 129.225 160.712C129.001 159.896 128.889 158.928 128.889 157.808C128.889 156.688 129.001 155.72 129.225 154.904C129.465 154.088 129.785 153.416 130.185 152.888C130.601 152.36 131.089 151.968 131.649 151.712C132.225 151.456 132.857 151.328 133.545 151.328C134.041 151.328 134.481 151.392 134.865 151.52C135.249 151.648 135.585 151.824 135.873 152.048C136.177 152.272 136.433 152.544 136.641 152.864C136.865 153.168 137.057 153.504 137.217 153.872H137.385V146.24H140.937V164H137.385V161.744ZM135.081 161.528C135.705 161.528 136.241 161.376 136.689 161.072C137.153 160.768 137.385 160.288 137.385 159.632V155.984C137.385 155.328 137.153 154.848 136.689 154.544C136.241 154.24 135.705 154.088 135.081 154.088C134.281 154.088 133.665 154.336 133.233 154.832C132.801 155.312 132.585 155.984 132.585 156.848V158.768C132.585 159.632 132.801 160.312 133.233 160.808C133.665 161.288 134.281 161.528 135.081 161.528ZM149.544 164.288C148.536 164.288 147.64 164.168 146.856 163.928C146.072 163.672 145.408 163.328 144.864 162.896C144.32 162.464 143.904 161.952 143.616 161.36C143.344 160.752 143.208 160.096 143.208 159.392C143.208 158.304 143.52 157.432 144.144 156.776C144.768 156.104 145.568 155.632 146.544 155.36V155.168C145.712 154.864 145.032 154.4 144.504 153.776C143.976 153.152 143.712 152.352 143.712 151.376C143.712 150.736 143.84 150.144 144.096 149.6C144.352 149.056 144.728 148.592 145.224 148.208C145.72 147.808 146.328 147.504 147.048 147.296C147.768 147.072 148.6 146.96 149.544 146.96C150.472 146.96 151.296 147.072 152.016 147.296C152.752 147.504 153.368 147.808 153.864 148.208C154.36 148.592 154.736 149.056 154.992 149.6C155.248 150.144 155.376 150.736 155.376 151.376C155.376 152.352 155.112 153.152 154.584 153.776C154.056 154.4 153.376 154.864 152.544 155.168V155.36C153.52 155.632 154.32 156.104 154.944 156.776C155.568 157.432 155.88 158.304 155.88 159.392C155.88 160.096 155.736 160.752 155.448 161.36C155.176 161.952 154.768 162.464 154.224 162.896C153.68 163.328 153.016 163.672 152.232 163.928C151.448 164.168 150.552 164.288 149.544 164.288ZM149.544 161.528C150.376 161.528 151.008 161.336 151.44 160.952C151.888 160.568 152.112 160.048 152.112 159.392V158.912C152.112 158.24 151.896 157.72 151.464 157.352C151.032 156.968 150.392 156.776 149.544 156.776C148.696 156.776 148.056 156.968 147.624 157.352C147.192 157.72 146.976 158.24 146.976 158.912V159.392C146.976 160.048 147.192 160.568 147.624 160.952C148.072 161.336 148.712 161.528 149.544 161.528ZM149.544 154.136C150.344 154.136 150.952 153.952 151.368 153.584C151.784 153.216 151.992 152.72 151.992 152.096V151.736C151.992 151.112 151.776 150.624 151.344 150.272C150.928 149.904 150.328 149.72 149.544 149.72C148.76 149.72 148.152 149.904 147.72 150.272C147.304 150.624 147.096 151.112 147.096 151.736V152.096C147.096 152.72 147.304 153.216 147.72 153.584C148.136 153.952 148.744 154.136 149.544 154.136ZM73.9906 177.096L76.9426 175.632L79.3186 180.288L77.2066 181.32L73.9906 177.096ZM90.1813 195V189.072L84.8773 178.248H88.8853L90.6613 182.136L91.9573 185.424H92.1493L93.4453 182.136L95.2213 178.248H99.0853L93.7813 189.072V195H90.1813ZM106.372 195.288C105.364 195.288 104.468 195.168 103.684 194.928C102.9 194.672 102.236 194.328 101.692 193.896C101.148 193.464 100.732 192.952 100.444 192.36C100.172 191.752 100.036 191.096 100.036 190.392C100.036 189.304 100.348 188.432 100.972 187.776C101.596 187.104 102.396 186.632 103.372 186.36V186.168C102.54 185.864 101.86 185.4 101.332 184.776C100.804 184.152 100.54 183.352 100.54 182.376C100.54 181.736 100.668 181.144 100.924 180.6C101.18 180.056 101.556 179.592 102.052 179.208C102.548 178.808 103.156 178.504 103.876 178.296C104.596 178.072 105.428 177.96 106.372 177.96C107.3 177.96 108.124 178.072 108.844 178.296C109.58 178.504 110.196 178.808 110.692 179.208C111.188 179.592 111.564 180.056 111.82 180.6C112.076 181.144 112.204 181.736 112.204 182.376C112.204 183.352 111.94 184.152 111.412 184.776C110.884 185.4 110.204 185.864 109.372 186.168V186.36C110.348 186.632 111.148 187.104 111.772 187.776C112.396 188.432 112.708 189.304 112.708 190.392C112.708 191.096 112.564 191.752 112.276 192.36C112.004 192.952 111.596 193.464 111.052 193.896C110.508 194.328 109.844 194.672 109.06 194.928C108.276 195.168 107.38 195.288 106.372 195.288ZM106.372 192.528C107.204 192.528 107.836 192.336 108.268 191.952C108.716 191.568 108.94 191.048 108.94 190.392V189.912C108.94 189.24 108.724 188.72 108.292 188.352C107.86 187.968 107.22 187.776 106.372 187.776C105.524 187.776 104.884 187.968 104.452 188.352C104.02 188.72 103.804 189.24 103.804 189.912V190.392C103.804 191.048 104.02 191.568 104.452 191.952C104.9 192.336 105.54 192.528 106.372 192.528ZM106.372 185.136C107.172 185.136 107.78 184.952 108.196 184.584C108.612 184.216 108.82 183.72 108.82 183.096V182.736C108.82 182.112 108.604 181.624 108.172 181.272C107.756 180.904 107.156 180.72 106.372 180.72C105.588 180.72 104.98 180.904 104.548 181.272C104.132 181.624 103.924 182.112 103.924 182.736V183.096C103.924 183.72 104.132 184.216 104.548 184.584C104.964 184.952 105.572 185.136 106.372 185.136ZM120.763 195.288C119.755 195.288 118.859 195.168 118.075 194.928C117.291 194.672 116.627 194.328 116.083 193.896C115.539 193.464 115.123 192.952 114.835 192.36C114.563 191.752 114.427 191.096 114.427 190.392C114.427 189.304 114.739 188.432 115.363 187.776C115.987 187.104 116.787 186.632 117.763 186.36V186.168C116.931 185.864 116.251 185.4 115.723 184.776C115.195 184.152 114.931 183.352 114.931 182.376C114.931 181.736 115.059 181.144 115.315 180.6C115.571 180.056 115.947 179.592 116.443 179.208C116.939 178.808 117.547 178.504 118.267 178.296C118.987 178.072 119.819 177.96 120.763 177.96C121.691 177.96 122.515 178.072 123.235 178.296C123.971 178.504 124.587 178.808 125.083 179.208C125.579 179.592 125.955 180.056 126.211 180.6C126.467 181.144 126.595 181.736 126.595 182.376C126.595 183.352 126.331 184.152 125.803 184.776C125.275 185.4 124.595 185.864 123.763 186.168V186.36C124.739 186.632 125.539 187.104 126.163 187.776C126.787 188.432 127.099 189.304 127.099 190.392C127.099 191.096 126.955 191.752 126.667 192.36C126.395 192.952 125.987 193.464 125.443 193.896C124.899 194.328 124.235 194.672 123.451 194.928C122.667 195.168 121.771 195.288 120.763 195.288ZM120.763 192.528C121.595 192.528 122.227 192.336 122.659 191.952C123.107 191.568 123.331 191.048 123.331 190.392V189.912C123.331 189.24 123.115 188.72 122.683 188.352C122.251 187.968 121.611 187.776 120.763 187.776C119.915 187.776 119.275 187.968 118.843 188.352C118.411 188.72 118.195 189.24 118.195 189.912V190.392C118.195 191.048 118.411 191.568 118.843 191.952C119.291 192.336 119.931 192.528 120.763 192.528ZM120.763 185.136C121.563 185.136 122.171 184.952 122.587 184.584C123.003 184.216 123.211 183.72 123.211 183.096V182.736C123.211 182.112 122.995 181.624 122.563 181.272C122.147 180.904 121.547 180.72 120.763 180.72C119.979 180.72 119.371 180.904 118.939 181.272C118.523 181.624 118.315 182.112 118.315 182.736V183.096C118.315 183.72 118.523 184.216 118.939 184.584C119.355 184.952 119.963 185.136 120.763 185.136ZM129.777 195V178.248H136.257C137.073 178.248 137.801 178.376 138.441 178.632C139.081 178.872 139.617 179.224 140.049 179.688C140.497 180.152 140.833 180.712 141.057 181.368C141.281 182.024 141.393 182.76 141.393 183.576C141.393 184.392 141.281 185.128 141.057 185.784C140.833 186.44 140.497 187 140.049 187.464C139.617 187.928 139.081 188.288 138.441 188.544C137.801 188.784 137.073 188.904 136.257 188.904H133.401V195H129.777ZM133.401 186H135.345C136.193 186 136.777 185.84 137.097 185.52C137.433 185.2 137.601 184.672 137.601 183.936V183.216C137.601 182.48 137.433 181.952 137.097 181.632C136.777 181.312 136.193 181.152 135.345 181.152H133.401V186ZM147.96 185.064V177.24H151.128V185.064H147.96Z" fill="#F1F1F1"/>
<defs>
<filter id="filter0_d_46_2" x="0" y="0" width="220" height="220" filterUnits="userSpaceOnUse" color-interpolation-filters="sRGB">
<feFlood flood-opacity="0" result="BackgroundImageFix"/>
<feColorMatrix in="SourceAlpha" type="matrix" values="0 0 0 0 0 0 0 0 0 0 0 0 0 0 0 0 0 0 127 0" result="hardAlpha"/>
<feMorphology radius="10" operator="dilate" in="SourceAlpha" result="effect1_dropShadow_46_2"/>
<feOffset/>
<feComposite in2="hardAlpha" operator="out"/>
<feColorMatrix type="matrix" values="0 0 0 0 0.945098 0 0 0 0 0.945098 0 0 0 0 0.945098 0 0 0 1 0"/>
<feBlend mode="normal" in2="BackgroundImageFix" result="effect1_dropShadow_46_2"/>
<feBlend mode="normal" in="SourceGraphic" in2="effect1_dropShadow_46_2" result="shape"/>
</filter>
</defs>
</svg>
